<svg width="734" height="538" viewBox="0 0 734 538" fill="none" xmlns="http://www.w3.org/2000/svg">
  <path d="M151 391C166 389 178 382 187 369L341 5H392L547 369C556 382 568 389 583 391V403H432V391C448 389 455 381 451 369L416 285H318L283 369C279 381 286 389 302 391V403H151V391Z" fill="#1496DF"/>
  <path d="M357 92L436 275H278L357 92Z" fill="#E7E7E7"/>
  <path d="M168 201C209 156 276 130 357 130C415 130 467 144 508 170C546 194 554 223 540 241C532 251 520 255 510 254C527 226 513 201 481 182C447 162 401 152 351 152C278 152 217 176 181 213L168 201Z" fill="#EF8A0D"/>
  <path d="M152 234L199 176L241 228L152 234Z" fill="#EF8A0D"/>
  <path d="M132 197L103 173L95 214L132 197Z" fill="#EF8A0D"/>
  <path d="M153 230C132 258 118 290 115 322C112 350 124 362 151 359C185 355 225 338 263 311C301 285 336 251 363 215L401 220C369 270 326 315 278 349C231 383 181 404 138 407C91 411 68 390 73 350C78 306 100 262 136 218L153 230Z" fill="#EF8A0D"/>
  <path d="M388 212L335 227L383 261L419 213L388 212Z" fill="#EF8A0D"/>
  <g fill="#EF8A0D">
    <path d="M0 538V531C11 530 18 524 25 510L89 390H96L160 510C167 524 174 530 185 531V538H95V531C107 530 111 524 108 516L98 497H47L37 516C34 524 38 530 50 531V538H0ZM52 487H94L73 444L52 487Z"/>
    <path d="M145 538V531C156 530 163 524 170 510L234 390H241L305 510C312 524 319 530 330 531V538H240V531C252 530 256 524 253 516L243 497H192L182 516C179 524 183 530 195 531V538H145ZM197 487H239L218 444L197 487Z"/>
    <path d="M293 538V531C308 530 314 523 314 509V420C314 406 308 399 293 398V391H417C468 391 507 422 507 465C507 508 468 538 417 538H293ZM360 520H404C435 520 451 500 451 465C451 430 435 410 404 410H360V520Z"/>
    <path d="M516 538V531C531 530 537 523 537 509V476L484 415C473 402 467 399 455 398V391H549V398C537 399 534 405 540 413L571 455L603 413C609 405 606 399 594 398V391H683V398C671 399 665 402 654 415L601 476V509C601 523 607 530 622 531V538H516Z"/>
    <path d="M639 538V531C650 530 657 524 664 510L728 390H735L799 510C806 524 813 530 824 531V538H734V531C746 530 750 524 747 516L737 497H686L676 516C673 524 677 530 689 531V538H639ZM691 487H733L712 444L691 487Z" transform="translate(-90 0)"/>
  </g>
</svg>
