<svg width="256" height="256" viewBox="0 0 256 256" fill="none" xmlns="http://www.w3.org/2000/svg">
  <rect width="256" height="256" rx="36" fill="#0D0D0D"/>
  <path d="M54 215C64 214 72 209 78 200L124 46H132L178 200C184 209 192 214 202 215V222H145V215C155 214 160 209 157 202L147 174H109L99 202C96 209 101 214 111 215V222H54V215Z" fill="#1496DF"/>
  <path d="M128 74L147 164H109L128 74Z" fill="#0D0D0D"/>
  <path d="M54 140C79 112 115 99 150 104C177 108 198 121 210 138C216 147 214 154 208 159C205 161 201 162 197 162C205 149 198 136 182 126C165 116 142 111 119 113C94 115 73 125 60 145L54 140Z" fill="#EF8A0D"/>
  <path d="M50 151C37 169 29 188 29 204C29 219 37 226 52 224C72 221 95 210 117 193C138 176 157 154 172 129L194 132C176 164 151 194 123 216C96 238 67 250 43 250C16 250 0 234 0 207C0 181 15 153 40 130L50 151Z" transform="translate(22 -21)" fill="#EF8A0D"/>
  <path d="M150 123L124 132L148 151L166 124L150 123Z" fill="#EF8A0D"/>
</svg>
